<svg xmlns="http://www.w3.org/2000/svg" width="24" height="24" viewBox="0 0 24 24">
  <path id="Path_10" data-name="Path 10" d="M11.04,26.541a17.311,17.311,0,0,0,7.92,0,10.169,10.169,0,0,0,7.581-7.581,17.311,17.311,0,0,0,0-7.92A10.171,10.171,0,0,0,18.96,3.459a17.311,17.311,0,0,0-7.92,0A10.169,10.169,0,0,0,3.459,11.04a17.311,17.311,0,0,0,0,7.92A10.167,10.167,0,0,0,11.04,26.541Zm2.143-14.19a.766.766,0,1,1,1.083-1.083l3.191,3.191a.766.766,0,0,1,0,1.083l-1.527,1.527-1.663,1.663a.766.766,0,0,1-1.083-1.083L15.832,15Z" transform="translate(-3 -3)" fill="#b9b5a8" fill-rule="evenodd"/>
</svg>
